<svg width="285" height="285" viewBox="0 0 285 285" fill="none" xmlns="http://www.w3.org/2000/svg">
<path d="M183.655 158.52C183.655 158.52 213.825 155.51 222.035 226.4C222.035 226.4 243.345 215.68 248.985 224.86C257.085 238.04 237.115 249.28 226.315 253.95C215.135 258.78 205.465 257.4 201.955 249.2C198.435 241 195.805 180.26 164.205 167.46L183.655 158.53V158.52Z" fill="white" stroke="#191F29" stroke-width="8.5" stroke-linecap="round" stroke-linejoin="round"/>
<path d="M199.476 162.08L207.796 175.15C201.016 180.6 193.816 183.94 186.406 186.22L178.686 171.29L199.486 162.08H199.476Z" fill="#191F29"/>
<path d="M247.522 45.1689C245.158 63.1966 235.085 64.1941 227.799 76.0666C228.878 82.5424 232.951 99.0804 236.189 97.7852C240.237 96.1663 266.95 75.1195 267.759 40.3119C268.099 25.7227 249.887 27.1411 247.522 45.1689Z" fill="white" stroke="#191F29" stroke-width="8.5" stroke-linecap="round" stroke-linejoin="round"/>
<path d="M35.6944 101.931C45.7444 117.083 55.23 113.55 66.9937 121.01C68.8715 127.301 72.4841 143.946 69.0065 144.206C64.6594 144.532 31.4133 137.373 15.3828 106.466C8.66373 93.5115 25.6445 86.7784 35.6944 101.931Z" fill="white" stroke="#191F29" stroke-width="8.5" stroke-linecap="round" stroke-linejoin="round"/>
<path d="M147.616 175.67C147.616 175.67 164.856 223.35 145.156 240.15C134.306 249.4 122.686 246.27 122.686 246.27C122.686 246.27 121.996 271.53 104.296 267.71C90.5057 264.74 91.4257 234.98 98.1257 225.55C104.206 216.99 113.856 219.11 122.956 223.13C135.496 228.67 127.246 176.82 127.246 176.08C127.246 175.34 147.606 175.67 147.606 175.67H147.616Z" fill="white" stroke="#191F29" stroke-width="8.5" stroke-linecap="round" stroke-linejoin="round"/>
<path d="M126.305 176.06L128.655 194.46C128.655 194.46 140.365 196.7 153.405 192.52L148.995 175.09L126.315 176.06H126.305Z" fill="#191F29"/>
<path d="M112.355 241.44C114.835 244.29 120.715 247.24 130.745 246.55" stroke="#191F29" stroke-width="8.5" stroke-linecap="round" stroke-linejoin="round"/>
<path d="M235.234 62.9199C218.304 22.1899 164.974 5.61991 116.124 25.9199C67.2644 46.2199 41.3844 95.6899 58.3044 136.43C62.2244 145.86 68.1044 153.97 75.4144 160.65L76.5044 185.6C76.7144 190.47 80.9244 191.28 85.7744 190.8C93.6544 190.02 102.684 186.57 108.604 178.59C129.574 184.4 153.994 183.15 177.404 173.43C226.264 153.13 252.144 103.65 235.224 62.9199H235.234Z" fill="url(#paint0_linear_2198_9422)" stroke="#191F29" stroke-width="8.5" stroke-linecap="round" stroke-linejoin="round"/>
<path d="M191.842 80.1739C191.842 80.1739 183.408 56.2194 166.619 61.8234C149.831 67.4273 156.903 90.5067 156.903 90.5067" stroke="#191F29" stroke-width="8.5" stroke-linecap="round" stroke-linejoin="round"/>
<path d="M142.598 98.1014C142.598 98.1014 134.163 74.1469 117.375 79.7509C100.587 85.3548 107.658 108.434 107.658 108.434" stroke="#191F29" stroke-width="8.5" stroke-linecap="round" stroke-linejoin="round"/>
<path d="M213.766 232.67C219.996 227.4 227.666 224.04 230.946 222.94" stroke="#191F29" stroke-width="8.5" stroke-linecap="round" stroke-linejoin="round"/>
<path d="M131.061 116.272L186.858 100.803C190.726 120.957 191.744 154.791 172.201 158.211C154.808 161.255 137.093 138.726 128.096 123.256C126.508 120.526 128.018 117.116 131.061 116.272Z" fill="#191F29"/>
<path d="M133.355 120.178L191.954 103.067" stroke="#191F29" stroke-width="8.5" stroke-linecap="round" stroke-linejoin="round"/>
<defs>
<linearGradient id="paint0_linear_2198_9422" x1="146.764" y1="17.2512" x2="146.764" y2="190.92" gradientUnits="userSpaceOnUse">
<stop stop-color="#BFEDFD"/>
<stop offset="1" stop-color="#BDFFD8"/>
</linearGradient>
</defs>
</svg>
