<svg width="285" height="285" viewBox="0 0 285 285" fill="none" xmlns="http://www.w3.org/2000/svg">
<path d="M116.03 182.25C116.03 182.25 123.27 211.1 121.98 236.73C121.15 253.2 116.56 264.38 124.15 269.81C131.74 275.23 163.55 279.35 165.34 269.06C167.13 258.77 147.55 254.2 142.67 253.12C145.38 246.07 147.46 195.53 136.07 183.06L116.02 182.26L116.03 182.25Z" fill="white" stroke="#191F29" stroke-width="8.5" stroke-linecap="round" stroke-linejoin="round"/>
<path d="M116.939 184.28L119.019 201.05C119.019 201.05 128.439 214.36 142.579 208.53L142.159 196.75L131.629 186.08L116.939 184.28Z" fill="#191F29"/>
<path d="M157.549 194.64C157.549 194.64 167.729 207.11 177.299 230.91C183.449 246.21 183.979 258.29 193.139 260.02C202.309 261.76 229.669 254.63 229.029 244.18C228.379 233.73 210.209 235.63 205.319 236.7C198.219 216.93 183.139 182.81 167.569 176.27L157.539 194.64H157.549Z" fill="white" stroke="#191F29" stroke-width="8.5" stroke-linecap="round" stroke-linejoin="round"/>
<path d="M168.439 207.28C168.439 207.28 179.379 198.47 180.579 187.53L173.779 178.86L160.439 195.54L168.439 207.28Z" fill="#191F29"/>
<path d="M212.52 77.0298C219.97 65.4898 218.65 49.8398 208.58 39.7598C198.5 29.6798 182.85 28.3698 171.31 35.8198C168.42 22.3998 156.42 12.2598 142.17 12.2598C127.92 12.2598 115.92 22.3998 113.03 35.8198C101.49 28.3698 85.8398 29.6898 75.7598 39.7598C65.6798 49.8398 64.3698 65.4898 71.8198 77.0298C58.3998 79.9198 48.2598 91.9198 48.2598 106.17C48.2598 120.42 58.3998 132.42 71.8198 135.31C73.6898 152.07 71.2098 160.84 62.9498 172.83C60.0398 177.05 61.5498 182.27 66.3098 184.17C78.0298 188.84 97.7398 189.97 113.03 176.52C115.92 189.94 127.92 200.08 142.17 200.08C156.42 200.08 168.42 189.94 171.31 176.52C182.85 183.97 198.5 182.65 208.58 172.58C218.66 162.5 219.97 146.85 212.52 135.31C225.94 132.42 236.08 120.42 236.08 106.17C236.08 91.9198 225.94 79.9198 212.52 77.0298Z" fill="url(#paint0_linear_1649_10172)" stroke="#191F29" stroke-width="8.5" stroke-linecap="round" stroke-linejoin="round"/>
<path d="M119.26 145.5C119.26 145.5 149.23 161.62 171.55 135.12" stroke="#191F29" stroke-width="8.5" stroke-linecap="round" stroke-linejoin="round"/>
<path d="M91.5391 87.21C105.959 85.34 118.259 89.2 128.209 99.4C112.859 101.71 100.189 106.29 92.2991 114.91" stroke="#191F29" stroke-width="8.5" stroke-linecap="round" stroke-linejoin="round"/>
<path d="M193.378 95.3227C195.28 80.2933 185.703 66.7031 171.989 64.9682C158.274 63.2332 145.615 74.0104 143.714 89.0398C141.813 104.069 151.389 117.659 165.104 119.394C178.818 121.129 191.477 110.352 193.378 95.3227Z" fill="white" stroke="#191F29" stroke-width="8.5" stroke-linecap="round" stroke-linejoin="round"/>
<path d="M180.189 91.5502L166.619 88.5502C168.199 80.8402 174.979 75.5402 182.099 76.4502C189.659 77.4102 195.019 85.0102 193.969 93.2902C192.919 101.57 185.839 107.6 178.279 106.65C172.799 105.96 168.269 101.74 166.789 95.9502L180.189 91.5502Z" fill="#191F29"/>
<path d="M197.02 238C200.48 237.25 203.98 236.72 207.5 236.42" stroke="#191F29" stroke-width="8.5" stroke-linecap="round" stroke-linejoin="round"/>
<path d="M138.949 252.09C143.469 252.84 147.909 254.11 152.139 255.86" stroke="#191F29" stroke-width="8.5" stroke-linecap="round" stroke-linejoin="round"/>
<defs>
<linearGradient id="paint0_linear_1649_10172" x1="142.17" y1="12.2598" x2="142.17" y2="200.08" gradientUnits="userSpaceOnUse">
<stop stop-color="#F7F5AF"/>
<stop offset="1" stop-color="#FFD8C0"/>
</linearGradient>
</defs>
</svg>
