<svg width="285" height="285" viewBox="0 0 285 285" fill="none" xmlns="http://www.w3.org/2000/svg">
<path d="M177.244 176.393C177.244 176.393 192.505 203.758 177.883 220.916C167.504 233.097 130.722 240.727 130.722 240.727C130.722 240.727 139.437 261.548 126.23 265.061C113.023 268.574 103.141 235.92 106.148 228.008C109.155 220.096 120.171 220.218 130.387 218.615C135.544 217.801 144.026 214.656 151.785 212.675C168.334 208.445 155.924 188.068 155.924 188.068L177.256 176.411L177.244 176.393Z" fill="white" stroke="#191F29" stroke-width="8.5" stroke-linecap="round" stroke-linejoin="round"/>
<path d="M158.164 189.114L160.22 197.468C160.22 197.468 176.757 197.34 182.958 189.661L177.711 176.195L158.163 189.104L158.164 189.114Z" fill="#191F29"/>
<path d="M148.79 186.91C148.79 186.91 163.42 216.007 168.59 252.715C168.59 252.715 175.428 251.484 183.674 252.577C193.111 253.835 208.974 265.104 173.133 273.236C152.978 277.8 147.178 275.07 145.958 268.544C144.738 262.018 136.507 208.274 127.027 192.959L148.78 186.911L148.79 186.91Z" fill="white" stroke="#191F29" stroke-width="8.5" stroke-linecap="round" stroke-linejoin="round"/>
<path d="M129.33 195.347L134.192 209.843C134.192 209.843 145.813 209.923 155.204 203.913L149.798 190.488L129.33 195.347Z" fill="#191F29"/>
<path d="M162.076 254.035C166.735 253.113 171.339 252.612 176.309 252.285" stroke="#191F29" stroke-width="8.5" stroke-linecap="round" stroke-linejoin="round"/>
<path d="M237.785 143.075C228.36 143.379 212.829 137.881 206.242 135.094L194.461 156.376C198.515 157.516 211.184 164.357 233.226 163.597C255.268 162.837 269.33 145.355 261.349 139.275C253.368 133.194 249.566 142.695 237.785 143.075Z" fill="white" stroke="#191F29" stroke-width="8.5" stroke-linecap="round" stroke-linejoin="round"/>
<path d="M50.6465 143.075C60.0714 143.379 75.6022 137.881 82.1895 135.094L93.9707 156.376C89.917 157.516 77.2476 164.357 55.2055 163.597C33.1634 162.837 19.1021 145.355 27.0828 139.275C35.0636 133.194 38.8654 142.695 50.6465 143.075Z" fill="white" stroke="#191F29" stroke-width="8.5" stroke-linecap="round" stroke-linejoin="round"/>
<path d="M212.52 74.03C219.97 62.49 218.65 46.84 208.58 36.76C198.5 26.68 182.85 25.37 171.31 32.82C168.42 19.4 156.42 9.26001 142.17 9.26001C127.92 9.26001 115.92 19.4 113.03 32.82C101.49 25.37 85.8398 26.69 75.7598 36.76C65.6798 46.84 64.3698 62.49 71.8198 74.03C58.3998 76.92 48.2598 88.92 48.2598 103.17C48.2598 117.42 58.3998 129.42 71.8198 132.31C73.6898 149.07 71.2098 157.84 62.9498 169.83C60.0398 174.05 61.5498 179.27 66.3098 181.17C78.0298 185.84 97.7398 186.97 113.03 173.52C115.92 186.94 127.92 197.08 142.17 197.08C156.42 197.08 168.42 186.94 171.31 173.52C182.85 180.97 198.5 179.65 208.58 169.58C218.66 159.5 219.97 143.85 212.52 132.31C225.94 129.42 236.08 117.42 236.08 103.17C236.08 88.92 225.94 76.92 212.52 74.03Z" fill="url(#paint0_linear_1649_10258)" stroke="#191F29" stroke-width="8.5" stroke-linecap="round" stroke-linejoin="round"/>
<path d="M92.2402 94.95C92.2402 94.95 95.0502 120.19 112.67 118.52C130.29 116.85 128.61 92.77 128.61 92.77" stroke="#191F29" stroke-width="8.5" stroke-linecap="round" stroke-linejoin="round"/>
<path d="M144.26 88.5899C144.26 88.5899 147.07 113.83 164.69 112.16C182.31 110.49 180.63 86.4099 180.63 86.4099" stroke="#191F29" stroke-width="8.5" stroke-linecap="round" stroke-linejoin="round"/>
<path d="M117.32 142.33C117.32 142.33 147.29 158.45 169.61 131.95" stroke="#191F29" stroke-width="8.5" stroke-linecap="round" stroke-linejoin="round"/>
<defs>
<linearGradient id="paint0_linear_1649_10258" x1="142.17" y1="9.26001" x2="142.17" y2="197.08" gradientUnits="userSpaceOnUse">
<stop stop-color="#F7F5AF"/>
<stop offset="1" stop-color="#FFD8C0"/>
</linearGradient>
</defs>
</svg>
