<svg width="285" height="285" viewBox="0 0 285 285" fill="none" xmlns="http://www.w3.org/2000/svg">
<path d="M173.78 158.52C173.78 158.52 203.95 155.51 212.16 226.4C212.16 226.4 233.47 215.68 239.11 224.86C247.21 238.04 227.24 249.28 216.44 253.95C205.26 258.78 195.59 257.4 192.08 249.2C188.56 241 185.93 180.26 154.33 167.46L173.78 158.53V158.52Z" fill="white" stroke="#191F29" stroke-width="8.5" stroke-linecap="round" stroke-linejoin="round"/>
<path d="M189.601 162.08L197.921 175.15C191.141 180.6 183.941 183.94 176.531 186.22L168.811 171.29L189.611 162.08H189.601Z" fill="#191F29"/>
<path d="M137.741 175.67C137.741 175.67 154.981 223.35 135.281 240.15C124.431 249.4 112.811 246.27 112.811 246.27C112.811 246.27 112.121 271.53 94.4207 267.71C80.6307 264.74 81.5507 234.98 88.2507 225.55C94.3307 216.99 103.981 219.11 113.081 223.13C125.621 228.67 117.371 176.82 117.371 176.08C117.371 175.34 137.731 175.67 137.731 175.67H137.741Z" fill="white" stroke="#191F29" stroke-width="8.5" stroke-linecap="round" stroke-linejoin="round"/>
<path d="M116.43 176.06L118.78 194.46C118.78 194.46 130.49 196.7 143.53 192.52L139.12 175.09L116.44 176.06H116.43Z" fill="#191F29"/>
<path d="M102.48 241.44C104.96 244.29 110.84 247.24 120.87 246.55" stroke="#191F29" stroke-width="8.5" stroke-linecap="round" stroke-linejoin="round"/>
<path d="M225.359 62.9197C208.429 22.1897 155.099 5.61967 106.249 25.9197C57.3894 46.2197 31.5094 95.6897 48.4294 136.43C52.3494 145.86 58.2294 153.97 65.5394 160.65L66.6294 185.6C66.8394 190.47 71.0494 191.28 75.8994 190.8C83.7794 190.02 92.8094 186.57 98.7294 178.59C119.699 184.4 144.119 183.15 167.529 173.43C216.389 153.13 242.269 103.65 225.349 62.9197H225.359Z" fill="url(#paint0_linear_1649_10184)" stroke="#191F29" stroke-width="8.5" stroke-linecap="round" stroke-linejoin="round"/>
<path d="M130.67 142.26C130.67 142.26 151.13 153.27 166.37 135.18" stroke="#191F29" stroke-width="8.5" stroke-linecap="round" stroke-linejoin="round"/>
<path d="M172.022 109.878C187.433 105.679 196.196 88.5866 191.595 71.7002C186.994 54.8138 170.772 44.5282 155.362 48.7266C139.952 52.9251 131.189 70.0178 135.789 86.9042C140.39 103.791 156.612 114.076 172.022 109.878Z" fill="white" stroke="#191F29" stroke-width="8.5" stroke-linecap="round" stroke-linejoin="round"/>
<path d="M126.917 122.161C142.327 117.962 151.09 100.87 146.49 83.9834C141.889 67.097 125.667 56.8114 110.256 61.0098C94.8461 65.2083 86.083 82.301 90.6836 99.1874C95.2842 116.074 111.506 126.359 126.917 122.161Z" fill="white" stroke="#191F29" stroke-width="8.5" stroke-linecap="round" stroke-linejoin="round"/>
<path d="M129.989 85.9697L114.179 88.7597C112.459 79.8397 117.359 71.1897 125.369 69.0097C133.859 66.6997 142.929 72.4497 145.469 81.7597C148.009 91.0697 143.099 100.63 134.609 102.94C128.449 104.62 121.749 102.11 117.619 96.5797L129.989 85.9697Z" fill="#191F29"/>
<path d="M175.841 73.4799L160.031 76.2699C158.311 67.3499 163.211 58.6999 171.221 56.5199C179.711 54.2099 188.781 59.9599 191.321 69.2699C193.861 78.5799 188.951 88.1399 180.461 90.4499C174.301 92.1299 167.601 89.6199 163.471 84.0899L175.841 73.4799Z" fill="#191F29"/>
<path d="M203.891 232.67C210.121 227.4 217.791 224.04 221.071 222.94" stroke="#191F29" stroke-width="8.5" stroke-linecap="round" stroke-linejoin="round"/>
<defs>
<linearGradient id="paint0_linear_1649_10184" x1="136.889" y1="17.251" x2="136.889" y2="190.92" gradientUnits="userSpaceOnUse">
<stop stop-color="#BFEDFD"/>
<stop offset="1" stop-color="#BDFFD8"/>
</linearGradient>
</defs>
</svg>
