<svg width="285" height="285" viewBox="0 0 285 285" fill="none" xmlns="http://www.w3.org/2000/svg">
<path d="M170.773 175.575C170.773 175.575 178.503 207.665 173.363 244.375C173.363 244.375 180.463 245.255 188.423 247.655C197.863 250.505 201.803 266.635 173.353 265.655C143.483 264.625 147.253 253.355 147.253 253.355C147.253 253.355 156.843 187.835 148.153 175.055L168.077 167.063L170.773 175.575Z" fill="white" stroke="#191F29" stroke-width="8.5" stroke-linecap="round" stroke-linejoin="round"/>
<path d="M149.354 175.498L149.464 187.028C149.464 187.028 165.064 187.618 171.204 180.878L169.664 168.828L149.344 175.498H149.354Z" fill="#191F29"/>
<path d="M166.742 243.844C171.482 244.234 176.742 244.894 181.612 245.954" stroke="#191F29" stroke-width="8.5" stroke-linecap="round" stroke-linejoin="round"/>
<path d="M129.413 175.574C129.413 175.574 137.143 207.664 132.003 244.374C132.003 244.374 138.923 245.074 146.543 248.404C155.273 252.214 167.413 267.424 130.723 265.354C110.093 264.194 105.273 259.964 105.893 253.354C106.513 246.744 115.483 187.834 106.793 175.054L129.413 175.564V175.574Z" fill="white" stroke="#191F29" stroke-width="8.5" stroke-linecap="round" stroke-linejoin="round"/>
<path d="M110.072 178.405L110.752 193.675C110.752 193.675 121.902 196.955 132.582 193.765L131.082 179.365L110.072 178.395V178.405Z" fill="#191F29"/>
<path d="M125.383 243.844C130.123 244.234 135.383 244.894 140.253 245.954" stroke="#191F29" stroke-width="8.5" stroke-linecap="round" stroke-linejoin="round"/>
<path d="M232.667 92.9669C231.28 48.8803 187.291 14.4759 134.417 16.1342C81.5339 17.7889 39.7933 54.8669 41.1671 98.9594C41.4884 109.167 44.1105 118.835 48.5766 127.673L40.7484 151.388C39.2178 156.016 42.867 158.266 47.572 159.537C55.2165 161.602 64.8831 161.579 73.2482 156.216C90.7952 169.085 114.072 176.576 139.407 175.789C192.29 174.134 234.035 137.047 232.657 92.9634L232.667 92.9669Z" fill="url(#paint0_linear_1762_7544)" stroke="#191F29" stroke-width="8.5" stroke-linecap="round" stroke-linejoin="round"/>
<path d="M244.184 113.406C239.383 118.498 232.065 125.504 229.006 128.37L219.367 155.379C223.864 155.514 236.096 152.818 249.044 140.957C265.23 126.13 263.125 111.476 259.251 108.279C255.378 105.082 250.184 107.041 244.184 113.406Z" fill="white" stroke="#191F29" stroke-width="8.5" stroke-linecap="round"/>
<circle cx="216.532" cy="148.718" r="35.9248" fill="white" stroke="#191F29" stroke-width="8"/>
<path d="M216.531 165L216.531 144.559" stroke="#162137" stroke-width="8" stroke-linecap="round" stroke-linejoin="round"/>
<circle cx="216.533" cy="129.759" r="5.875" transform="rotate(-180 216.533 129.759)" fill="#162137"/>
<path d="M173.865 152.523C166.945 153.566 142.891 157.127 119.759 153.699C115.263 153.037 105.918 153.598 104.503 161.144C103.088 168.691 113.816 173.1 119.357 174.361C129.259 175.846 143.174 178.538 160.683 177.199C182.569 175.526 189.959 162.697 188.885 157.79C187.811 152.884 182.515 151.22 173.865 152.523Z" fill="white" stroke="#191F29" stroke-width="8.5" stroke-linecap="round"/>
<path d="M115.995 133.574C115.995 133.574 131.221 151.123 151.886 139.613" stroke="#191F29" stroke-width="8.5" stroke-linecap="round" stroke-linejoin="round"/>
<path d="M166.143 117.96C182.041 119.499 196.296 106.624 197.982 89.2036C199.669 71.7832 188.148 56.4135 172.25 54.8745C156.353 53.3355 142.098 66.21 140.411 83.6304C138.725 101.051 150.246 116.421 166.143 117.96Z" fill="white" stroke="#191F29" stroke-width="8.5" stroke-linecap="round" stroke-linejoin="round"/>
<path d="M119.614 113.45C135.512 114.989 149.767 102.114 151.453 84.6939C153.139 67.2734 141.619 51.9037 125.721 50.3647C109.823 48.8257 95.5684 61.7002 93.882 79.1207C92.1956 96.5411 103.716 111.911 119.614 113.45Z" fill="white" stroke="#191F29" stroke-width="8.5" stroke-linecap="round" stroke-linejoin="round"/>
<path d="M135.32 80.7001L119.549 77.7025C121.103 68.7522 128.752 62.4019 137.015 63.204C145.772 64.0547 152.214 72.6473 151.287 82.253C150.361 91.8587 142.38 99.0563 133.623 98.2056C127.267 97.5921 121.893 92.8693 119.992 86.2341L135.32 80.7001Z" fill="#191F29"/>
<path d="M182.621 85.2812L166.849 82.2835C168.404 73.3333 176.053 66.9829 184.316 67.785C193.073 68.6357 199.515 77.2284 198.588 86.8341C197.662 96.4398 189.681 103.637 180.923 102.787C174.568 102.173 169.193 97.4503 167.293 90.8152L182.621 85.2812Z" fill="#191F29"/>
<defs>
<linearGradient id="paint0_linear_1762_7544" x1="136.542" y1="16.0767" x2="136.542" y2="175.845" gradientUnits="userSpaceOnUse">
<stop stop-color="#BFEDFD"/>
<stop offset="1" stop-color="#BDFFD8"/>
</linearGradient>
</defs>
</svg>
