<svg width="285" height="285" viewBox="0 0 285 285" fill="none" xmlns="http://www.w3.org/2000/svg">
<path d="M142.08 32.25C141.85 32.25 141.63 32.27 141.4 32.27V32.25H63.87C58.56 32.25 54.25 36.56 54.25 41.87V120.61H54.26C54.55 168.87 93.75 207.9 142.07 207.9C190.39 207.9 229.9 168.58 229.9 120.07C229.9 71.56 190.58 32.25 142.08 32.25Z" fill="url(#paint0_linear_1649_10222)" stroke="#191F29" stroke-width="8.5" stroke-linecap="round" stroke-linejoin="round"/>
<path d="M178.69 138.59C194.662 138.59 207.61 124.402 207.61 106.9C207.61 89.3981 194.662 75.21 178.69 75.21C162.717 75.21 149.77 89.3981 149.77 106.9C149.77 124.402 162.717 138.59 178.69 138.59Z" fill="white" stroke="#191F29" stroke-width="8.5" stroke-linecap="round" stroke-linejoin="round"/>
<path d="M131.949 138.59C147.921 138.59 160.869 124.402 160.869 106.9C160.869 89.3981 147.921 75.21 131.949 75.21C115.977 75.21 103.029 89.3981 103.029 106.9C103.029 124.402 115.977 138.59 131.949 138.59Z" fill="white" stroke="#191F29" stroke-width="8.5" stroke-linecap="round" stroke-linejoin="round"/>
<path d="M138.881 118.11L122.891 116.65C123.581 107.59 130.581 100.53 138.881 100.53C147.681 100.53 154.921 108.47 154.921 118.11C154.921 127.75 147.681 135.69 138.881 135.69C132.491 135.69 126.691 131.51 124.161 125.09L138.881 118.11Z" fill="#191F29"/>
<path d="M186.39 118.11L170.4 116.65C171.09 107.59 178.09 100.53 186.39 100.53C195.19 100.53 202.43 108.47 202.43 118.11C202.43 127.75 195.19 135.69 186.39 135.69C180 135.69 174.2 131.51 171.67 125.09L186.39 118.11Z" fill="#191F29"/>
<path d="M150.069 207.98C152.989 216.26 155.699 218.97 164.709 216.19C168.579 214.99 172.719 212.31 177.439 210.17C178.259 218.13 169.319 248.91 179.949 255.07C189.369 260.53 226.769 263.03 227.849 248.34C228.859 234.74 211.409 235.96 202.019 234.13C202.329 226.08 206.079 213.67 206.329 201.36C206.709 182.39 197.459 180.38 190.629 179.61C175.289 177.86 159.819 178.83 153.779 181.54C149.949 183.26 162.229 186.62 156.959 190.98C153.959 193.47 147.139 199.71 150.059 207.99L150.069 207.98Z" fill="white" stroke="#191F29" stroke-width="8.5" stroke-linecap="round" stroke-linejoin="round"/>
<path d="M192.26 233.51C197.53 234.38 204.04 234.42 210.67 235.23" stroke="#191F29" stroke-width="8.5" stroke-linecap="round" stroke-linejoin="round"/>
<path d="M177.59 202.53C177.5 207.16 178.14 211.99 176.76 217.21" stroke="#191F29" stroke-width="8.5" stroke-linecap="round" stroke-linejoin="round"/>
<path d="M111.199 201.16C111.449 212.08 125.679 217.98 134.979 216.47C138.969 215.82 140.099 215.97 143.809 209.7C143.519 217.7 129.659 248.14 139.329 255.71C147.899 262.42 184.589 270.07 187.709 255.68C190.589 242.35 173.139 241.14 164.099 238.03C166.009 227.44 166.859 226.11 169.129 201.98C170.619 186.18 161.019 181.06 149.179 180.2C139.479 179.49 110.699 179.03 111.209 201.17L111.199 201.16Z" fill="white" stroke="#191F29" stroke-width="8.5" stroke-linecap="round" stroke-linejoin="round"/>
<path d="M155.25 236.58C160.35 238.18 166.79 239.12 173.24 240.83" stroke="#191F29" stroke-width="8.5" stroke-linecap="round" stroke-linejoin="round"/>
<path d="M145.02 202.16C144.29 206.74 144.25 211.6 142.16 216.58" stroke="#191F29" stroke-width="8.5" stroke-linecap="round" stroke-linejoin="round"/>
<defs>
<linearGradient id="paint0_linear_1649_10222" x1="142.075" y1="32.25" x2="142.075" y2="207.9" gradientUnits="userSpaceOnUse">
<stop stop-color="#FDCED5"/>
<stop offset="1" stop-color="#F1C4F5"/>
</linearGradient>
</defs>
</svg>
