<svg width="285" height="285" viewBox="0 0 285 285" fill="none" xmlns="http://www.w3.org/2000/svg">
<path d="M189.962 190.478C189.962 190.478 207.437 218.481 214.161 254.934C214.161 254.934 221.175 253.525 229.486 253.287C239.343 253.007 248.178 267.066 220.876 275.127C192.211 283.589 192.227 271.705 192.227 271.705C192.227 271.705 176.433 202.625 164.149 193.246L187.563 184.07L189.962 190.478Z" fill="white" stroke="#191F29" stroke-width="8.5" stroke-linecap="round" stroke-linejoin="round"/>
<path d="M170.416 197.142L175.572 210.405C175.572 210.405 190.559 206.035 194.255 197.7L188.985 186.754L170.359 196.629L170.416 197.142Z" fill="#191F29"/>
<path d="M207.705 256.526C212.325 255.398 217.524 254.362 222.48 253.829" stroke="#191F29" stroke-width="8.5" stroke-linecap="round" stroke-linejoin="round"/>
<path d="M146.17 192.079C146.17 192.079 141.6 242.574 116.639 249.452C102.893 253.238 93.6918 245.482 93.6918 245.482C93.6918 245.482 82.3712 268.074 67.9536 257.119C56.7183 248.589 70.1528 222.018 80.2154 216.312C89.3479 211.132 97.1925 217.138 103.734 224.633C112.749 234.962 127.229 184.496 127.543 183.825C127.856 183.155 146.161 192.075 146.161 192.075L146.17 192.079Z" fill="white" stroke="#191F29" stroke-width="8.5" stroke-linecap="round" stroke-linejoin="round"/>
<path d="M126.699 183.409L121.037 201.073C121.037 201.073 130.697 208.06 144.28 209.795L147.665 192.137L126.708 183.413L126.699 183.409Z" fill="#191F29"/>
<path d="M86.3789 236.732C87.4189 240.364 91.4967 245.526 100.875 249.148" stroke="#191F29" stroke-width="8.5" stroke-linecap="round" stroke-linejoin="round"/>
<path d="M122.278 23.3011C122.055 23.3569 121.846 23.4297 121.623 23.4855L121.618 23.4661L46.4037 42.2715C41.2523 43.5595 38.1164 48.7862 39.4044 53.9376L58.5033 130.326L58.513 130.324C70.5002 177.072 117.997 205.429 164.874 193.708C211.751 181.988 240.543 134.259 228.777 87.1972C217.01 40.1359 169.33 11.5371 122.278 23.3011Z" fill="url(#paint0_linear_2199_10315)" stroke="#191F29" stroke-width="8.5" stroke-linecap="round" stroke-linejoin="round"/>
<path d="M125.58 146.804L181.378 131.335C185.246 151.489 181.602 170.44 162.059 173.86C144.864 176.869 130.963 166.405 122.74 153.725C121.022 151.076 122.537 147.647 125.58 146.804Z" fill="#191F29"/>
<path d="M127.875 150.709L186.473 133.599" stroke="#191F29" stroke-width="8.5" stroke-linecap="round" stroke-linejoin="round"/>
<path d="M183.588 117.586C199.083 113.712 208.203 96.8067 203.958 79.8274C199.712 62.8482 183.71 52.2244 168.215 56.0985C152.719 59.9727 143.6 76.8777 147.845 93.8569C152.09 110.836 168.093 121.46 183.588 117.586Z" fill="white" stroke="#191F29" stroke-width="8.5" stroke-linecap="round" stroke-linejoin="round"/>
<path d="M131.088 130.712C146.583 126.838 155.703 109.933 151.458 92.9537C147.212 75.9744 131.21 65.3506 115.715 69.2248C100.219 73.0989 91.0996 90.0039 95.3448 106.983C99.59 123.962 115.593 134.586 131.088 130.712Z" fill="white" stroke="#191F29" stroke-width="8.5" stroke-linecap="round" stroke-linejoin="round"/>
<path d="M188.179 81.2778L172.312 83.7399C170.784 74.7831 175.863 66.2361 183.915 64.2228C192.452 62.0883 201.402 68.0351 203.74 77.3872C206.078 86.7394 200.98 96.1984 192.443 98.3329C186.244 99.8828 179.603 97.2344 175.592 91.6198L188.179 81.2778Z" fill="#191F29"/>
<path d="M135.679 94.4038L119.812 96.8659C118.284 87.9091 123.363 79.362 131.415 77.3488C139.952 75.2143 148.902 81.1611 151.24 90.5132C153.578 99.8653 148.48 109.324 139.943 111.459C133.744 113.009 127.103 110.36 123.092 104.746L135.679 94.4038Z" fill="#191F29"/>
<defs>
<linearGradient id="paint0_linear_2199_10315" x1="135.263" y1="20.6575" x2="135.263" y2="196.351" gradientUnits="userSpaceOnUse">
<stop stop-color="#FDCED5"/>
<stop offset="1" stop-color="#F1C4F5"/>
</linearGradient>
</defs>
</svg>
