<svg width="285" height="285" viewBox="0 0 285 285" fill="none" xmlns="http://www.w3.org/2000/svg">
<path d="M174.419 181.33C174.419 181.33 182.149 213.42 177.009 250.13C177.009 250.13 184.109 251.01 192.069 253.41C201.509 256.26 205.449 272.39 176.999 271.41C147.129 270.38 150.899 259.11 150.899 259.11C150.899 259.11 160.489 193.59 151.799 180.81L174.419 181.32V181.33Z" fill="white" stroke="#191F29" stroke-width="8.5" stroke-linecap="round" stroke-linejoin="round"/>
<path d="M155.16 187.76L155.27 199.29C155.27 199.29 170.87 199.88 177.01 193.14L175.47 181.09L155.15 187.76H155.16Z" fill="#191F29"/>
<path d="M170.381 249.6C175.121 249.99 180.381 250.65 185.251 251.71" stroke="#191F29" stroke-width="8.5" stroke-linecap="round" stroke-linejoin="round"/>
<path d="M133.059 181.33C133.059 181.33 140.789 213.42 135.649 250.13C135.649 250.13 142.57 250.83 150.19 254.16C158.92 257.97 171.059 273.18 134.37 271.11C113.74 269.95 108.919 265.72 109.539 259.11C110.159 252.5 119.129 193.59 110.439 180.81L133.059 181.32V181.33Z" fill="white" stroke="#191F29" stroke-width="8.5" stroke-linecap="round" stroke-linejoin="round"/>
<path d="M113.721 184.16L114.401 199.43C114.401 199.43 125.551 202.71 136.231 199.52L134.731 185.12L113.721 184.15V184.16Z" fill="#191F29"/>
<path d="M142.08 13.25C141.85 13.25 141.63 13.27 141.4 13.27V13.25H63.87C58.56 13.25 54.25 17.56 54.25 22.87V101.61H54.26C54.55 149.87 93.75 188.9 142.07 188.9C190.39 188.9 229.9 149.58 229.9 101.07C229.9 52.56 190.58 13.25 142.08 13.25Z" fill="url(#paint0_linear_1649_10160)" stroke="#191F29" stroke-width="8.5" stroke-linecap="round" stroke-linejoin="round"/>
<path d="M110.857 136.19C110.857 136.19 123.045 158.512 169.857 150.207" stroke="#191F29" stroke-width="8.5" stroke-linecap="round" stroke-linejoin="round"/>
<path d="M178.69 119.59C194.662 119.59 207.61 105.402 207.61 87.9C207.61 70.3981 194.662 56.21 178.69 56.21C162.717 56.21 149.77 70.3981 149.77 87.9C149.77 105.402 162.717 119.59 178.69 119.59Z" fill="white" stroke="#191F29" stroke-width="8.5" stroke-linecap="round" stroke-linejoin="round"/>
<path d="M129.02 249.6C133.76 249.99 139.02 250.65 143.89 251.71" stroke="#191F29" stroke-width="8.5" stroke-linecap="round" stroke-linejoin="round"/>
<path d="M131.949 119.59C147.921 119.59 160.869 105.402 160.869 87.9C160.869 70.3981 145.813 70.1719 129.841 70.1719C113.869 70.1719 103.029 70.3981 103.029 87.9C103.029 105.402 115.977 119.59 131.949 119.59Z" fill="white" stroke="#191F29" stroke-width="8.5" stroke-linecap="round" stroke-linejoin="round"/>
<path d="M144.429 85.4799L128.439 84.0199C129.129 74.9599 136.129 67.8999 144.429 67.8999C153.229 67.8999 160.469 75.8399 160.469 85.4799C160.469 95.1199 153.229 103.06 144.429 103.06C138.039 103.06 132.239 98.8799 129.709 92.4599L144.429 85.4799Z" fill="#191F29"/>
<path d="M191.951 85.4799L175.961 84.0199C176.651 74.9599 183.651 67.8999 191.951 67.8999C200.751 67.8999 207.991 75.8399 207.991 85.4799C207.991 95.1199 200.751 103.06 191.951 103.06C185.561 103.06 179.761 98.8799 177.231 92.4599L191.951 85.4799Z" fill="#191F29"/>
<defs>
<linearGradient id="paint0_linear_1649_10160" x1="142.075" y1="13.25" x2="142.075" y2="188.9" gradientUnits="userSpaceOnUse">
<stop stop-color="#FDCED5"/>
<stop offset="1" stop-color="#F1C4F5"/>
</linearGradient>
</defs>
</svg>
