<svg width="285" height="285" viewBox="0 0 285 285" fill="none" xmlns="http://www.w3.org/2000/svg">
<path d="M171.531 182.25C171.531 182.25 179.261 214.34 174.121 251.05C174.121 251.05 181.221 251.93 189.181 254.33C198.621 257.18 202.561 273.31 174.111 272.33C144.241 271.3 148.011 260.03 148.011 260.03C148.011 260.03 157.601 194.51 148.911 181.73L171.531 182.24V182.25Z" fill="white" stroke="#191F29" stroke-width="8.5" stroke-linecap="round" stroke-linejoin="round"/>
<path d="M152.28 188.68L152.39 200.21C152.39 200.21 167.99 200.8 174.13 194.06L172.59 182.01L152.27 188.68H152.28Z" fill="#191F29"/>
<path d="M167.5 250.52C172.24 250.91 177.5 251.57 182.37 252.63" stroke="#191F29" stroke-width="8.5" stroke-linecap="round" stroke-linejoin="round"/>
<path d="M130.171 182.25C130.171 182.25 137.901 214.34 132.761 251.05C132.761 251.05 139.681 251.75 147.301 255.08C156.031 258.89 168.171 274.1 131.481 272.03C110.851 270.87 106.031 266.64 106.651 260.03C107.271 253.42 116.241 194.51 107.551 181.73L130.171 182.24V182.25Z" fill="white" stroke="#191F29" stroke-width="8.5" stroke-linecap="round" stroke-linejoin="round"/>
<path d="M110.83 185.08L111.51 200.35C111.51 200.35 122.66 203.63 133.34 200.44L131.84 186.04L110.83 185.07V185.08Z" fill="#191F29"/>
<path d="M126.141 250.52C130.881 250.91 136.141 251.57 141.011 252.63" stroke="#191F29" stroke-width="8.5" stroke-linecap="round" stroke-linejoin="round"/>
<path d="M212.52 76.03C219.97 64.49 218.65 48.84 208.58 38.76C198.5 28.68 182.85 27.37 171.31 34.82C168.42 21.4 156.42 11.26 142.17 11.26C127.92 11.26 115.92 21.4 113.03 34.82C101.49 27.37 85.8398 28.69 75.7598 38.76C65.6798 48.84 64.3698 64.49 71.8198 76.03C58.3998 78.92 48.2598 90.92 48.2598 105.17C48.2598 119.42 58.3998 131.42 71.8198 134.31C73.6898 151.07 71.2098 159.84 62.9498 171.83C60.0398 176.05 61.5498 181.27 66.3098 183.17C78.0298 187.84 97.7398 188.97 113.03 175.52C115.92 188.94 127.92 199.08 142.17 199.08C156.42 199.08 168.42 188.94 171.31 175.52C182.85 182.97 198.5 181.65 208.58 171.58C218.66 161.5 219.97 145.85 212.52 134.31C225.94 131.42 236.08 119.42 236.08 105.17C236.08 90.92 225.94 78.92 212.52 76.03Z" fill="url(#paint0_linear_1649_10246)" stroke="#191F29" stroke-width="8.5" stroke-linecap="round" stroke-linejoin="round"/>
<path d="M196.855 101.092C197.854 85.9756 186.817 85.2652 170.602 84.9333C154.386 84.6013 147.681 86.1754 146.904 97.7915C145.905 112.908 156.278 125.901 170.071 126.812C183.865 127.723 195.856 116.208 196.855 101.092Z" fill="white" stroke="#191F29" stroke-width="8.5" stroke-linecap="round" stroke-linejoin="round"/>
<path d="M151.645 101.093C152.644 85.9773 139.409 86.899 125.616 85.9877C111.822 85.0763 102.036 84.0288 101.037 99.145C100.038 114.261 111.068 125.902 124.861 126.814C138.655 127.725 150.646 116.21 151.645 101.093Z" fill="white" stroke="#191F29" stroke-width="8.5" stroke-linecap="round" stroke-linejoin="round"/>
<path d="M165.176 107.364L177.736 101.424C174.476 94.2637 166.696 90.6037 159.946 93.0737C152.786 95.6937 149.256 104.294 152.126 112.134C154.996 119.974 163.236 124.274 170.396 121.664C175.586 119.764 179.066 114.644 179.216 108.674L165.166 107.374L165.176 107.364Z" fill="#191F29"/>
<path d="M121.496 110.334L134.056 104.394C130.796 97.2339 123.016 93.5739 116.266 96.0439C109.106 98.6639 105.576 107.264 108.446 115.104C111.316 122.944 119.556 127.244 126.716 124.634C131.906 122.734 135.386 117.614 135.536 111.644L121.486 110.344L121.496 110.334Z" fill="#191F29"/>
<path d="M185.803 148.159C183.165 149.692 176.191 154.152 172.774 152.253C169.815 150.61 167.622 148.622 164.377 147.58C160.437 146.313 158.886 145.959 154.864 147.786C151.82 149.17 150.511 151.938 147.833 153.66C142.552 157.055 137.367 157.284 131.867 153.784C127.841 151.222 122.426 149.741 118.797 153.37" stroke="#191F29" stroke-width="8.5" stroke-linecap="round" stroke-linejoin="round"/>
<defs>
<linearGradient id="paint0_linear_1649_10246" x1="142.17" y1="11.26" x2="142.17" y2="199.08" gradientUnits="userSpaceOnUse">
<stop stop-color="#F7F5AF"/>
<stop offset="1" stop-color="#FFD8C0"/>
</linearGradient>
</defs>
</svg>
