<svg width="285" height="285" viewBox="0 0 285 285" fill="none" xmlns="http://www.w3.org/2000/svg">
<path d="M163.584 181.501C163.584 181.501 171.323 201.891 166.73 255.999C166.73 255.999 173.819 256.878 181.767 259.274C191.193 262.12 195.127 278.226 166.72 277.247C136.894 276.219 140.659 264.966 140.659 264.966C140.659 264.966 149.525 195.42 140.858 182.669L163.594 181.501H163.584Z" fill="white" stroke="#191F29" stroke-width="8.5" stroke-linecap="round" stroke-linejoin="round"/>
<path d="M143.896 194.255L146.942 208.554C146.942 208.554 160.961 212.697 167.102 205.978L166.163 193.087L143.896 194.255Z" fill="#191F29"/>
<path d="M160.111 255.48C164.844 255.87 170.096 256.529 174.959 257.587" stroke="#191F29" stroke-width="8.5" stroke-linecap="round" stroke-linejoin="round"/>
<path d="M122.15 185.016C122.15 185.016 127.322 208.311 120.272 256.009C120.272 256.009 127.182 256.708 134.791 260.033C143.507 263.837 155.629 279.024 118.994 276.958C98.3952 275.799 93.5825 271.576 94.2015 264.976C94.8206 258.375 103.827 220.812 99.2939 182.859L122.16 185.016H122.15Z" fill="white" stroke="#191F29" stroke-width="8.5" stroke-linecap="round" stroke-linejoin="round"/>
<path d="M100.102 191.37L100.781 206.617C100.781 206.617 111.914 209.892 122.578 206.707L121.08 192.329L100.102 191.36V191.37Z" fill="#191F29"/>
<path d="M113.658 255.48C118.391 255.87 123.643 256.529 128.506 257.587" stroke="#191F29" stroke-width="8.5" stroke-linecap="round" stroke-linejoin="round"/>
<path d="M206.25 117.28C203.95 103.95 194.85 92.9501 181.6 85.4501C189.79 74.5401 193.63 61.9601 191.46 49.3701C186.27 19.3101 148.79 0.670079 107.76 7.75008C66.7199 14.8401 37.6599 44.9601 42.8499 75.0301C44.8099 86.3601 51.3499 96.0701 60.9399 103.39C48.8299 115.61 42.6399 130.4 45.1699 145.09C46.4899 152.71 50.0299 159.58 55.2999 165.46L55.1399 194.4C55.1299 196.84 57.6199 198.52 59.8599 197.56C65.2099 195.27 74.1299 190.56 81.6299 182.28C96.9299 187.74 115.65 189.39 135.17 186.02C179.65 178.34 211.47 147.57 206.24 117.29L206.25 117.28Z" fill="url(#paint0_linear_1762_7363)" stroke="#191F29" stroke-width="8.5" stroke-linecap="round" stroke-linejoin="round"/>
<path d="M223.83 125.409C219.03 130.501 211.711 137.507 208.652 140.373L199.014 167.382C203.511 167.517 215.742 164.821 228.691 152.96C244.877 138.133 242.772 123.479 238.898 120.282C235.024 117.085 229.831 119.044 223.83 125.409Z" fill="white" stroke="#191F29" stroke-width="8.5" stroke-linecap="round"/>
<circle cx="196.178" cy="160.721" r="35.9248" transform="rotate(6.80769 196.178 160.721)" fill="white" stroke="#191F29" stroke-width="8"/>
<path d="M185.27 162.091L191.48 168.301L206.503 153.278" stroke="#162137" stroke-width="8" stroke-linecap="round" stroke-linejoin="round"/>
<path d="M158.595 167.285C151.916 169.375 128.692 176.579 105.307 176.736C100.763 176.77 91.6142 178.756 91.3721 186.43C91.1299 194.104 102.407 196.818 108.076 197.215C118.088 197.166 132.251 197.694 149.348 193.689C170.72 188.682 176.057 174.872 174.244 170.188C172.431 165.504 166.943 164.671 158.595 167.285Z" fill="white" stroke="#191F29" stroke-width="8.5" stroke-linecap="round"/>
<path d="M104.621 138.55C115.411 138.82 136.491 137.54 150.621 135C154.001 134.39 156.831 137.13 155.951 139.85C153.571 147.14 147.301 158.81 131.291 160.48C114.991 162.18 105.171 151.15 100.681 144.21C99.0706 141.73 101.181 138.47 104.621 138.56V138.55Z" fill="#191F29"/>
<path d="M127.83 156.2C129.1 156.28 130.39 156.28 131.61 155.94C132.03 155.82 132.45 155.66 132.78 155.38C133.61 154.69 133.71 153.39 133.26 152.42C132.81 151.45 131.91 150.74 130.98 150.21C127.93 148.48 124.13 148.21 120.79 149.29C120.02 149.54 119.26 149.86 118.67 150.41C113.87 154.81 126.03 156.09 127.83 156.2Z" fill="url(#paint1_linear_1762_7363)"/>
<path d="M77.8496 94.22C77.8496 94.22 80.6596 119.46 98.2796 117.79C115.9 116.12 114.22 92.04 114.22 92.04" stroke="#191F29" stroke-width="8.5" stroke-linecap="round" stroke-linejoin="round"/>
<path d="M129.869 87.8699C129.869 87.8699 132.679 113.11 150.299 111.44C167.919 109.77 166.239 85.6899 166.239 85.6899" stroke="#191F29" stroke-width="8.5" stroke-linecap="round" stroke-linejoin="round"/>
<defs>
<linearGradient id="paint0_linear_1762_7363" x1="124.526" y1="6.24878" x2="124.526" y2="197.834" gradientUnits="userSpaceOnUse">
<stop stop-color="#BDFFD8"/>
<stop offset="1" stop-color="#F7F5AF"/>
</linearGradient>
<linearGradient id="paint1_linear_1762_7363" x1="125.541" y1="148.649" x2="125.541" y2="156.244" gradientUnits="userSpaceOnUse">
<stop stop-color="#BDFFD8"/>
<stop offset="1" stop-color="#F7F5AF"/>
</linearGradient>
</defs>
</svg>
