<svg width="285" height="285" viewBox="0 0 285 285" fill="none" xmlns="http://www.w3.org/2000/svg">
<path d="M183.6 179.94C183.6 179.94 194.86 209.18 177.97 224.11C165.98 234.71 128.49 237.09 128.49 237.09C128.49 237.09 134.19 258.93 120.62 260.55C107.05 262.17 101.86 228.45 105.95 221.04C110.04 213.63 120.93 215.3 131.27 215.15C136.49 215.07 145.33 213.15 153.29 212.28C170.27 210.42 160.85 188.5 160.85 188.5L183.61 179.96L183.6 179.94Z" fill="white" stroke="#191F29" stroke-width="8.5" stroke-linecap="round" stroke-linejoin="round"/>
<path d="M162.92 189.85L163.78 198.41C163.78 198.41 180.17 200.61 187.39 193.88L184.09 179.81L162.92 189.84V189.85Z" fill="#191F29"/>
<path d="M124.24 237.05L134.57 236.75" stroke="#191F29" stroke-width="8.5" stroke-linecap="round" stroke-linejoin="round"/>
<path d="M150.6 188.57C150.6 188.57 161.27 219.34 161.56 256.41C161.56 256.41 168.5 256.09 176.53 258.26C185.72 260.75 199.96 274.01 163.36 277.35C142.78 279.22 137.39 275.75 137.04 269.12C136.69 262.49 135.61 208.13 128.23 191.7L150.59 188.57H150.6Z" fill="white" stroke="#191F29" stroke-width="8.5" stroke-linecap="round" stroke-linejoin="round"/>
<path d="M130.199 194.37L133.109 209.38C133.109 209.38 144.619 210.99 154.719 206.27L151.129 192.25L130.199 194.37Z" fill="#191F29"/>
<path d="M154.93 256.86C159.67 256.56 164.3 256.67 169.27 257" stroke="#191F29" stroke-width="8.5" stroke-linecap="round" stroke-linejoin="round"/>
<path d="M224.25 119.28C221.95 105.95 212.85 94.9498 199.6 87.4498C207.79 76.5398 211.63 63.9598 209.46 51.3698C204.27 21.3098 166.79 2.66984 125.76 9.74984C84.7199 16.8398 55.6599 46.9598 60.8499 77.0298C62.8099 88.3598 69.3499 98.0698 78.9399 105.39C66.8299 117.61 60.6399 132.4 63.1699 147.09C64.4899 154.71 68.0299 161.58 73.2999 167.46L73.1399 196.4C73.1299 198.84 75.6199 200.52 77.8599 199.56C83.2099 197.27 92.1299 192.56 99.6299 184.28C114.93 189.74 133.65 191.39 153.17 188.02C197.65 180.34 229.47 149.57 224.24 119.29L224.25 119.28Z" fill="url(#paint0_linear_1649_10197)" stroke="#191F29" stroke-width="8.5" stroke-linecap="round" stroke-linejoin="round"/>
<path d="M122.621 140.55C133.411 140.82 154.491 139.54 168.621 137C172.001 136.39 174.831 139.13 173.951 141.85C171.571 149.14 165.301 160.81 149.291 162.48C132.991 164.18 123.171 153.15 118.681 146.21C117.071 143.73 119.181 140.47 122.621 140.56V140.55Z" fill="#191F29"/>
<path d="M145.83 158.2C147.1 158.28 148.39 158.28 149.61 157.94C150.03 157.82 150.45 157.66 150.78 157.38C151.61 156.69 151.71 155.39 151.26 154.42C150.81 153.45 149.91 152.74 148.98 152.21C145.93 150.48 142.13 150.21 138.79 151.29C138.02 151.54 137.26 151.86 136.67 152.41C131.87 156.81 144.03 158.09 145.83 158.2Z" fill="url(#paint1_linear_1649_10197)"/>
<path d="M95.8496 96.22C95.8496 96.22 98.6596 121.46 116.28 119.79C133.9 118.12 132.22 94.04 132.22 94.04" stroke="#191F29" stroke-width="8.5" stroke-linecap="round" stroke-linejoin="round"/>
<path d="M147.869 89.8699C147.869 89.8699 150.679 115.11 168.299 113.44C185.919 111.77 184.239 87.6899 184.239 87.6899" stroke="#191F29" stroke-width="8.5" stroke-linecap="round" stroke-linejoin="round"/>
<defs>
<linearGradient id="paint0_linear_1649_10197" x1="142.526" y1="8.24854" x2="142.526" y2="199.834" gradientUnits="userSpaceOnUse">
<stop stop-color="#BDFFD8"/>
<stop offset="1" stop-color="#F7F5AF"/>
</linearGradient>
<linearGradient id="paint1_linear_1649_10197" x1="143.541" y1="150.649" x2="143.541" y2="158.244" gradientUnits="userSpaceOnUse">
<stop stop-color="#BDFFD8"/>
<stop offset="1" stop-color="#F7F5AF"/>
</linearGradient>
</defs>
</svg>
