<svg width="360" height="360" viewBox="0 0 360 360" fill="none" xmlns="http://www.w3.org/2000/svg">
<path d="M161.015 253.094C161.015 253.094 168.778 273.55 164.17 327.834C164.17 327.834 171.282 328.715 179.256 331.12C188.713 333.975 192.659 350.133 164.16 349.151C134.238 348.119 138.015 336.83 138.015 336.83C138.015 336.83 146.91 267.059 138.215 254.267L161.025 253.094H161.015Z" fill="white" stroke="#191F29" stroke-width="8.5" stroke-linecap="round" stroke-linejoin="round"/>
<path d="M141.258 256.861L144.313 271.206C144.313 271.206 158.377 275.363 164.538 268.621L163.597 255.689L141.258 256.861Z" fill="#191F29"/>
<path d="M157.527 327.313C162.276 327.704 167.545 328.365 172.423 329.427" stroke="#191F29" stroke-width="8.5" stroke-linecap="round" stroke-linejoin="round"/>
<path d="M119.443 256.621C119.443 256.621 124.632 279.992 117.56 327.844C117.56 327.844 124.492 328.546 132.125 331.881C140.871 335.698 153.032 350.934 116.278 348.861C95.6121 347.699 90.7837 343.461 91.4048 336.84C92.0259 330.219 101.062 292.533 96.5137 254.457L119.453 256.621H119.443Z" fill="white" stroke="#191F29" stroke-width="8.5" stroke-linecap="round" stroke-linejoin="round"/>
<path d="M97.3203 253.966L98.0015 269.263C98.0015 269.263 109.171 272.549 119.869 269.353L118.367 254.928L97.3203 253.956V253.966Z" fill="#191F29"/>
<path d="M110.924 327.313C115.672 327.704 120.941 328.365 125.82 329.427" stroke="#191F29" stroke-width="8.5" stroke-linecap="round" stroke-linejoin="round"/>
<path d="M248.369 162.813C237.94 184.576 229.511 183.773 213.854 185.084C214.567 189.66 218.107 201.458 226.563 212.036C261.326 208.683 267.254 182.742 269.649 172.133C269.047 169.874 262.029 166.775 248.369 162.813Z" fill="white" stroke="#191F29" stroke-width="8.5" stroke-linecap="round"/>
<path d="M238.521 143.326L238.348 143.045C230.706 130.909 241.232 112.63 241.345 112.451L241.36 112.402L271.278 30.7608C274.24 21.5784 279.642 6.72638 291.881 10.6732C302.985 14.254 299.092 24.58 295.107 36.6716L282.447 77.141C282.976 77.3925 335.583 102.283 338.948 119.581C342.306 136.848 304.447 176.508 304.082 176.822L303.054 187.077C302.424 193.35 295.786 197.119 290.077 194.445L232.387 167.425C226.765 164.792 225.345 157.443 229.58 152.906L238.521 143.326Z" fill="url(#paint0_linear_1762_7522)" stroke="#191F29" stroke-width="8.5" stroke-linecap="round" stroke-linejoin="round"/>
<path d="M301.262 102.332L286.707 126.809C283.849 131.609 277.601 133.28 272.59 130.58C267.899 128.049 265.808 122.502 267.721 117.643L279.172 88.5535" fill="url(#paint1_linear_1762_7522)"/>
<path d="M301.262 102.332L286.707 126.809C283.849 131.609 277.601 133.28 272.59 130.58C267.899 128.049 265.808 122.502 267.721 117.643L279.172 88.5535" stroke="#191F29" stroke-width="8.5" stroke-linecap="round" stroke-linejoin="round"/>
<path d="M320.235 118.431L304.52 138.831C301.062 143.315 294.592 144.301 289.834 141.051C285.179 137.872 283.749 131.737 286.567 126.972L300.692 103.053" fill="url(#paint2_linear_1762_7522)"/>
<path d="M320.235 118.431L304.52 138.831C301.062 143.315 294.592 144.301 289.834 141.051C285.179 137.872 283.749 131.737 286.567 126.972L300.692 103.053" stroke="#191F29" stroke-width="8.5" stroke-linecap="round" stroke-linejoin="round"/>
<path d="M334.261 136.593L322.115 152.017C318.33 156.828 311.189 157.504 306.422 153.507C302.013 149.804 301.253 143.413 304.673 138.899L319.087 119.908" fill="url(#paint3_linear_1762_7522)"/>
<path d="M334.261 136.593L322.115 152.017C318.33 156.828 311.189 157.504 306.422 153.507C302.013 149.804 301.253 143.413 304.673 138.899L319.087 119.908" stroke="#191F29" stroke-width="8.5" stroke-linecap="round" stroke-linejoin="round"/>
<path d="M261.261 125.96C281.686 132.736 290.626 119.878 293.958 113.72C295.761 110.387 293.635 106.256 289.863 105.598L267.242 101.623C263.823 101.024 260.316 101.827 257.525 103.851L244.871 113.014C239.742 116.731 236.183 122.294 235.357 128.551C234.788 132.884 235.37 138.047 238.627 143.577" fill="url(#paint4_linear_1762_7522)"/>
<path d="M261.261 125.96C281.686 132.736 290.626 119.878 293.958 113.72C295.761 110.387 293.635 106.256 289.863 105.598L267.242 101.623C263.823 101.024 260.316 101.827 257.525 103.851L244.871 113.014C239.742 116.731 236.183 122.294 235.357 128.551C234.788 132.884 235.37 138.047 238.627 143.577" stroke="#191F29" stroke-width="8.5" stroke-linecap="round" stroke-linejoin="round"/>
<path d="M259.079 143.059L256.506 146.9L260.871 149.1L257.938 153.284L253.542 151.068L250.924 154.923L255.26 157.109L252.432 161.158L257.126 163.524L259.955 159.475L264.53 161.781L261.701 165.83L266.396 168.196L269.224 164.147L273.769 166.438L276.358 162.568L271.902 160.322L274.836 156.138L279.321 158.399L281.924 154.574L277.499 152.343L280.462 148.1L275.768 145.734L272.804 149.977L268.229 147.671L271.193 143.428L266.498 141.061L263.534 145.305L259.079 143.059ZM265.566 151.466L270.141 153.772L267.207 157.956L262.632 155.65L265.566 151.466Z" fill="#191F29"/>
<path d="M283.535 176.835L294.462 155.156L290.724 153.272C288.576 155.152 286.554 155.445 282.861 153.696L281.037 157.314L285.971 159.801L278.631 174.363L283.535 176.835Z" fill="#191F29"/>
<path d="M99.4469 256.558L70.0053 284.27C68.2365 285.937 65.3279 284.89 65.0235 282.475L62.3458 261.236L54.9315 262.171C45.3804 263.375 36.5838 256.548 35.3796 246.997L21.0928 133.676C19.8887 124.125 26.7156 115.328 36.2667 114.124L198.029 93.73C207.58 92.5259 216.376 99.3528 217.58 108.904L231.867 222.225C233.071 231.776 226.245 240.572 216.693 241.777L99.4469 256.558Z" fill="url(#paint5_linear_1762_7522)" stroke="#191F29" stroke-width="8.5" stroke-linecap="round" stroke-linejoin="round"/>
<path d="M176.812 164.637C175.526 147.152 161.548 133.929 145.592 135.102C129.635 136.276 117.742 151.401 119.027 168.886C120.313 186.371 134.291 199.595 150.248 198.421C166.204 197.248 178.098 182.122 176.812 164.637Z" fill="white" stroke="#191F29" stroke-width="8.5" stroke-linecap="round" stroke-linejoin="round"/>
<path d="M130.109 168.072C128.823 150.587 114.845 137.364 98.8884 138.537C82.9317 139.711 71.0386 154.836 72.3243 172.321C73.61 189.807 87.5878 203.03 103.545 201.856C119.501 200.683 131.394 185.557 130.109 168.072Z" fill="white" stroke="#191F29" stroke-width="8.5" stroke-linecap="round" stroke-linejoin="round"/>
<path d="M147.301 166.302L163.074 163.163C161.432 154.212 153.713 147.913 145.454 148.795C136.685 149.725 130.307 158.392 131.321 167.998C132.335 177.604 140.391 184.748 149.159 183.819C155.523 183.148 160.856 178.369 162.707 171.71L147.301 166.302Z" fill="#191F29"/>
<path d="M102.475 171.005L117.987 166.76C115.717 157.947 107.573 152.209 99.3963 153.672C90.7156 155.218 84.9644 164.314 86.6543 173.824C88.3442 183.335 96.8839 189.892 105.565 188.346C111.866 187.228 116.848 182.085 118.224 175.311L102.475 171.005Z" fill="#191F29"/>
<path d="M102.982 216.947C102.982 216.947 127.484 234.94 150.524 214.275" stroke="#191F29" stroke-width="8.5" stroke-linecap="round" stroke-linejoin="round"/>
<defs>
<linearGradient id="paint0_linear_1762_7522" x1="283.139" y1="10.02" x2="283.139" y2="195.316" gradientUnits="userSpaceOnUse">
<stop stop-color="#BFEDFD"/>
<stop offset="1" stop-color="#BDFFD8"/>
</linearGradient>
<linearGradient id="paint1_linear_1762_7522" x1="290.242" y1="92.1234" x2="277.291" y2="132.285" gradientUnits="userSpaceOnUse">
<stop stop-color="#BFEDFD"/>
<stop offset="1" stop-color="#BDFFD8"/>
</linearGradient>
<linearGradient id="paint2_linear_1762_7522" x1="308.764" y1="105.655" x2="296.503" y2="143.677" gradientUnits="userSpaceOnUse">
<stop stop-color="#BFEDFD"/>
<stop offset="1" stop-color="#BDFFD8"/>
</linearGradient>
<linearGradient id="paint3_linear_1762_7522" x1="324.36" y1="121.608" x2="313.1" y2="156.525" gradientUnits="userSpaceOnUse">
<stop stop-color="#BFEDFD"/>
<stop offset="1" stop-color="#BDFFD8"/>
</linearGradient>
<linearGradient id="paint4_linear_1762_7522" x1="271.466" y1="99.6054" x2="255.528" y2="149.028" gradientUnits="userSpaceOnUse">
<stop stop-color="#BFEDFD"/>
<stop offset="1" stop-color="#BDFFD8"/>
</linearGradient>
<linearGradient id="paint5_linear_1762_7522" x1="126.48" y1="93.5923" x2="126.48" y2="285.082" gradientUnits="userSpaceOnUse">
<stop stop-color="#FDCED5"/>
<stop offset="1" stop-color="#F1C4F5"/>
</linearGradient>
</defs>
</svg>
