<svg width="285" height="285" viewBox="0 0 285 285" fill="none" xmlns="http://www.w3.org/2000/svg">
<path d="M176.121 172.84C176.121 172.84 183.871 193.26 179.271 247.45C179.271 247.45 186.371 248.33 194.331 250.73C203.771 253.58 207.711 269.71 179.261 268.73C149.391 267.7 153.161 256.43 153.161 256.43C153.161 256.43 162.041 186.78 153.361 174.01L176.131 172.84H176.121Z" fill="white" stroke="#191F29" stroke-width="8.5" stroke-linecap="round" stroke-linejoin="round"/>
<path d="M156.4 176.6L159.45 190.92C159.45 190.92 173.49 195.07 179.64 188.34L178.7 175.43L156.4 176.6Z" fill="#191F29"/>
<path d="M172.641 246.93C177.381 247.32 182.641 247.98 187.511 249.04" stroke="#191F29" stroke-width="8.5" stroke-linecap="round" stroke-linejoin="round"/>
<path d="M134.621 176.36C134.621 176.36 139.801 199.69 132.741 247.46C132.741 247.46 139.661 248.16 147.281 251.49C156.011 255.3 168.151 270.51 131.461 268.44C110.831 267.28 106.011 263.05 106.631 256.44C107.251 249.83 116.271 212.21 111.731 174.2L134.631 176.36H134.621Z" fill="white" stroke="#191F29" stroke-width="8.5" stroke-linecap="round" stroke-linejoin="round"/>
<path d="M112.541 173.71L113.221 188.98C113.221 188.98 124.371 192.26 135.051 189.07L133.551 174.67L112.541 173.7V173.71Z" fill="#191F29"/>
<path d="M126.121 246.93C130.861 247.32 136.121 247.98 140.991 249.04" stroke="#191F29" stroke-width="8.5" stroke-linecap="round" stroke-linejoin="round"/>
<path d="M230.576 163.415L113.255 175.675L83.2819 202.707C81.4812 204.333 78.6005 203.226 78.348 200.81L76.1269 179.555L68.7073 180.331C59.1493 181.329 50.515 174.329 49.5161 164.771L37.6654 51.3685C36.6665 41.8106 43.667 33.1762 53.225 32.1774L215.103 15.2608C224.661 14.262 233.296 21.2625 234.295 30.8204L246.145 144.223C247.144 153.781 240.144 162.415 230.586 163.414L230.576 163.415Z" fill="url(#paint0_linear_1649_10209)" stroke="#191F29" stroke-width="8.5" stroke-linecap="round" stroke-linejoin="round"/>
<path d="M194.683 90.8295C195.593 73.3513 183.4 58.5093 167.449 57.6789C151.499 56.8486 137.831 70.3443 136.921 87.8226C136.011 105.301 148.204 120.143 164.154 120.973C180.105 121.804 193.773 108.308 194.683 90.8295Z" fill="white" stroke="#191F29" stroke-width="8.5" stroke-linecap="round" stroke-linejoin="round"/>
<path d="M147.999 88.4003C148.909 70.9221 136.716 56.0801 120.766 55.2497C104.815 54.4194 91.1472 67.9151 90.2373 85.3934C89.3274 102.872 101.52 117.714 117.471 118.544C133.421 119.374 147.089 105.879 147.999 88.4003Z" fill="white" stroke="#191F29" stroke-width="8.5" stroke-linecap="round" stroke-linejoin="round"/>
<path d="M131.701 85.1301L115.811 82.8401C116.971 73.8301 124.331 67.1401 132.611 67.5801C141.401 68.0401 148.221 76.3401 147.721 85.9701C147.221 95.6001 139.571 103.15 130.781 102.69C124.401 102.36 118.831 97.8801 116.631 91.3401L131.701 85.1301Z" fill="#191F29"/>
<path d="M179.161 87.5998L163.271 85.3098C164.431 76.2998 171.791 69.6098 180.071 70.0498C188.861 70.5098 195.681 78.8098 195.181 88.4398C194.681 98.0698 187.031 105.62 178.241 105.16C171.861 104.83 166.291 100.35 164.091 93.8098L179.161 87.5998Z" fill="#191F29"/>
<path d="M115.031 133.42C115.031 133.42 137.051 154.3 162.451 136.71" stroke="#191F29" stroke-width="8.5" stroke-linecap="round" stroke-linejoin="round"/>
<defs>
<linearGradient id="paint0_linear_1649_10209" x1="134.164" y1="23.7191" x2="152.177" y2="196.086" gradientUnits="userSpaceOnUse">
<stop stop-color="#FDCED5"/>
<stop offset="1" stop-color="#F1C4F5"/>
</linearGradient>
</defs>
</svg>
