<svg width="264" height="275" viewBox="0 0 264 275" fill="none" xmlns="http://www.w3.org/2000/svg">
<path d="M146.983 166.82C146.983 166.82 154.721 187.21 150.128 241.318C150.128 241.318 157.217 242.197 165.165 244.593C174.591 247.439 178.525 263.545 150.118 262.566C120.293 261.538 124.057 250.285 124.057 250.285C124.057 250.285 132.924 180.739 124.257 167.989L146.993 166.82H146.983Z" fill="white" stroke="#191F29" stroke-width="8.5" stroke-linecap="round" stroke-linejoin="round"/>
<path d="M127.295 170.574L130.34 184.873C130.34 184.873 144.359 189.017 150.5 182.297L149.561 169.406L127.295 170.574Z" fill="#191F29"/>
<path d="M143.51 240.799C148.243 241.189 153.495 241.848 158.357 242.906" stroke="#191F29" stroke-width="8.5" stroke-linecap="round" stroke-linejoin="round"/>
<path d="M105.548 170.335C105.548 170.335 110.72 193.63 103.671 241.328C103.671 241.328 110.58 242.027 118.189 245.352C126.906 249.156 139.028 264.344 102.393 262.277C81.7937 261.118 76.9809 256.895 77.6 250.295C78.219 243.695 87.2255 206.131 82.6923 168.178L105.558 170.335H105.548Z" fill="white" stroke="#191F29" stroke-width="8.5" stroke-linecap="round" stroke-linejoin="round"/>
<path d="M83.5 167.689L84.179 182.936C84.179 182.936 95.3123 186.211 105.976 183.026L104.478 168.648L83.5 167.679V167.689Z" fill="#191F29"/>
<path d="M97.0566 240.799C101.79 241.189 107.042 241.848 111.904 242.906" stroke="#191F29" stroke-width="8.5" stroke-linecap="round" stroke-linejoin="round"/>
<path d="M204.477 151.952L88.304 171.362L60.0895 200.139C58.3945 201.87 55.4558 200.943 55.0559 198.55L51.5396 177.504L44.1926 178.732C34.7282 180.313 25.694 173.865 24.1127 164.401L5.35118 52.1084C3.76989 42.644 10.2175 33.6097 19.6819 32.0285L179.976 5.24698C189.44 3.66569 198.475 10.1133 200.056 19.5777L218.817 131.87C220.399 141.335 213.951 150.369 204.487 151.95L204.477 151.952Z" fill="url(#paint0_linear_1729_8586)" stroke="#191F29" stroke-width="8.5" stroke-linecap="round" stroke-linejoin="round"/>
<path d="M68.668 74.0613C68.668 74.0613 71.478 99.3013 89.098 97.6313C106.718 95.9613 105.038 71.8813 105.038 71.8813" stroke="#191F29" stroke-width="8.5" stroke-linecap="round" stroke-linejoin="round"/>
<path d="M120.688 67.7113C120.688 67.7113 123.497 92.9512 141.118 91.2812C158.738 89.6113 157.058 65.5312 157.058 65.5312" stroke="#191F29" stroke-width="8.5" stroke-linecap="round" stroke-linejoin="round"/>
<path d="M238.764 100.634C233.963 105.726 226.645 112.732 223.586 115.598L213.947 142.607C218.444 142.742 230.676 140.046 243.624 128.185C259.81 113.359 257.705 98.7038 253.832 95.5068C249.958 92.3098 244.764 94.2692 238.764 100.634Z" fill="white" stroke="#191F29" stroke-width="8.5" stroke-linecap="round"/>
<path d="M243.898 170.129H159.965C155.346 170.129 152.459 165.129 154.769 161.129L196.735 88.4412C199.045 84.4412 204.818 84.4412 207.128 88.4412L242.933 150.457L249.094 161.129C251.404 165.129 248.517 170.129 243.898 170.129Z" fill="white" stroke="#191F29" stroke-width="8"/>
<path d="M201.367 116.484V138.799" stroke="#162137" stroke-width="8" stroke-linecap="round" stroke-linejoin="round"/>
<circle cx="201.37" cy="151.736" r="4.62733" fill="#162137"/>
<path d="M143.062 146.034C134.241 148.622 113.667 149.294 90.5346 145.867C86.6466 145.652 78.4227 145.557 75.627 153.011C72.8313 160.464 81.0942 166.198 88.299 168.611C95.5038 171.024 114.284 174.173 131.793 172.834C153.679 171.16 160.368 158.434 159.995 153.425C159.453 146.15 153.757 142.895 143.062 146.034Z" fill="white" stroke="#191F29" stroke-width="8.5" stroke-linecap="round"/>
<path d="M98.8789 127.45C117.307 126.784 127.646 126.044 146.122 122.887" stroke="#191F29" stroke-width="8.5" stroke-linecap="round" stroke-linejoin="round"/>
<defs>
<linearGradient id="paint0_linear_1729_8586" x1="99.8289" y1="18.6377" x2="128.346" y2="189.317" gradientUnits="userSpaceOnUse">
<stop stop-color="#FDCED5"/>
<stop offset="1" stop-color="#F1C4F5"/>
</linearGradient>
</defs>
</svg>
