<svg viewBox="0 0 250 50" xmlns="http://www.w3.org/2000/svg"><title>surveyplanet-logo-light</title><g fill="none" fill-rule="evenodd"><path d="M38 10.56c-.8-.77-1.63-1.5-2.5-2.12l3.87-3.88a2.66 2.66 0 0 0 0-3.77 2.65 2.65 0 0 0-3.77 0L30.55 5.8A20.57 20.57 0 0 0 9 10.53a20.43 20.43 0 0 0 2.5 31.05l-3.88 3.87A2.66 2.66 0 0 0 9.52 50c.67 0 1.37-.25 1.9-.77l5.04-5.03a20.56 20.56 0 0 0 21.58-4.72C46 31.48 46 18.53 38 10.56zm-3.8 25.12a15.15 15.15 0 0 1-13.44 4.17l10.2-10.17a2.66 2.66 0 0 0 0-3.77 2.65 2.65 0 0 0-3.78 0L15.34 37.73a15.08 15.08 0 0 1-2.57-23.42 15.13 15.13 0 0 1 13.44-4.18L16 20.31a2.66 2.66 0 0 0 1.9 4.55c.68 0 1.38-.25 1.9-.78l11.84-11.82a15.1 15.1 0 0 1 2.55 23.42z" fill="#5BC84D" fill-rule="nonzero"/><path d="M60.94 22.35c0 2.64 7.85 1.09 7.85 7.03 0 3.14-3.2 4.95-6.17 4.95a8.29 8.29 0 0 1-6.17-2.7c-.2-.24-.13-.47 0-.67l1.29-1.81c.2-.26.43-.2.73.03 1.35.86 2.73 1.49 4.02 1.49 1.06 0 2.08-.33 2.08-1.36 0-2.57-7.82-1.48-7.82-6.93 0-3.1 2.7-4.91 5.6-4.91 2.09 0 4.2.86 5.55 2.44.2.23.13.5-.03.7l-1.25 1.64c-.2.27-.43.2-.73-.03-1.25-.83-2.01-1.25-3.17-1.25-1.02 0-1.78.56-1.78 1.38zM85.79 17.83c.3 0 .5.2.5.5V33.5c0 .3-.2.49-.5.49h-3.24c-.3 0-.46-.2-.5-.5l-.13-1.81c-1.12 1.58-2.77 2.74-4.81 2.74-3.63 0-6.14-2.5-6.14-6.83v-9.28c0-.3.2-.49.5-.49h3.36c.3 0 .5.2.5.5v8.48c0 2.67 1.55 3.6 3.1 3.6 2.34 0 3.5-1.99 3.5-3.14v-8.95c0-.3.2-.49.49-.49h3.37zM99.9 18.23c.27.2.27.43.17.66l-.99 2.44c-.13.36-.4.43-.72.33-.33-.1-.73-.23-1.36-.23-2.04 0-3.36 1.52-3.36 3.5v8.58c0 .3-.2.49-.5.49h-3.36c-.3 0-.5-.2-.5-.5V18.33c0-.3.2-.49.5-.49h3.2c.3 0 .46.2.5.5l.12 1.78c.86-1.55 2.18-2.64 4.13-2.64.92 0 1.71.36 2.18.76zM113.14 18.23a.6.6 0 0 1 .6-.4h3.39c.36 0 .53.2.4.56l-6.04 15.21a.6.6 0 0 1-.6.4h-3.36a.6.6 0 0 1-.6-.4l-6.07-15.2c-.13-.37.03-.57.4-.57h3.4c.26 0 .5.13.59.4l3.96 10.69 3.93-10.7zM133.82 25.49c0 1.28-.16 1.94-1.15 1.94h-10.36c.46 2.08 2.11 3.27 4.62 3.27 1.28 0 2.3-.33 3.43-1.12.3-.2.5-.2.73.03l1.45 1.42c.23.23.23.46-.03.73a8.43 8.43 0 0 1-6.01 2.47 8.22 8.22 0 0 1-8.52-8.38c0-4.65 3.47-8.35 8.16-8.35 4.68 0 7.68 3.7 7.68 7.99zm-7.65-4.26c-1.98 0-3.53 1.19-3.93 3.36h7.72c-.33-2.17-1.88-3.36-3.8-3.36zM150.59 17.83c.36 0 .52.2.4.56l-8.56 21.48a.6.6 0 0 1-.59.4h-3.3c-.36 0-.56-.2-.4-.56l2.35-5.68-6.24-15.64c-.13-.36.03-.56.4-.56h3.4c.26 0 .5.13.59.4l3.96 10.69 3.93-10.7a.6.6 0 0 1 .6-.39h3.46zM162.2 17.5c4.55 0 7.85 3.73 7.85 8.45 0 4.62-3.3 8.28-7.85 8.28a6 6 0 0 1-4.59-1.95v7.5c0 .3-.2.49-.5.49h-3.36c-.3 0-.5-.2-.5-.5V18.32c0-.3.2-.49.5-.49h2.87c.3 0 .46.2.5.5l.16 1.65a5.94 5.94 0 0 1 4.92-2.48zm-.5 12.77c2.41 0 4.16-1.85 4.16-4.36 0-2.6-1.75-4.45-4.16-4.45-2.44 0-4.12 2.01-4.12 4.45 0 2.48 1.68 4.36 4.12 4.36zM172.56 10.4c0-.3.2-.49.5-.49h3.36c.3 0 .5.2.5.5v23.1c0 .3-.2.49-.5.49h-3.37c-.3 0-.5-.2-.5-.5V10.4zM195.75 17.83c.3 0 .5.2.5.5V33.5c0 .3-.2.49-.5.49h-2.87c-.3 0-.46-.2-.5-.5l-.19-1.58a5.97 5.97 0 0 1-4.88 2.31c-4.56 0-7.86-3.66-7.86-8.28 0-4.72 3.3-8.45 7.86-8.45 2.17 0 3.8.99 4.91 2.48l.17-1.66c.03-.3.2-.49.5-.49h2.86zm-7.95 12.44c2.44 0 4.13-1.88 4.13-4.36 0-2.44-1.69-4.45-4.13-4.45-2.4 0-4.16 1.85-4.16 4.45 0 2.51 1.75 4.36 4.16 4.36zM208.72 17.47c3.3 0 5.84 2.5 5.84 6.83v9.2c0 .3-.2.5-.5.5h-3.36c-.3 0-.5-.2-.5-.5V25.1c0-2.67-1.45-3.6-3.03-3.6-2.44 0-3.56 2.41-3.56 3.17v8.85c0 .3-.2.49-.5.49h-3.37c-.3 0-.5-.2-.5-.5V18.33c0-.3.2-.49.5-.49h3.24c.3 0 .46.2.5.5l.13 2.1v.04a5.9 5.9 0 0 1 5.11-3zM232.9 25.49c0 1.28-.16 1.94-1.15 1.94H221.4c.46 2.08 2.11 3.27 4.62 3.27 1.29 0 2.3-.33 3.43-1.12.3-.2.5-.2.73.03l1.45 1.42c.23.23.23.46-.03.73a8.43 8.43 0 0 1-6.01 2.47 8.22 8.22 0 0 1-8.51-8.38c0-4.65 3.46-8.35 8.15-8.35 4.68 0 7.69 3.7 7.69 7.99zm-7.65-4.26c-1.98 0-3.53 1.19-3.93 3.36h7.72c-.32-2.17-1.88-3.36-3.79-3.36zM244.72 17.83c.3 0 .5.2.5.5v2.57c0 .3-.2.5-.5.5h-2.64v12.1c0 .3-.2.5-.5.5h-3.36c-.3 0-.5-.2-.5-.5V21.4h-2.64c-.3 0-.5-.2-.5-.5v-2.57c0-.3.2-.5.5-.5h2.64v-4.45c0-.3.2-.5.5-.5h3.36c.3 0 .5.2.5.5v4.45h2.64zM247.64 13c.03 0 .04.02.04.04v.32c0 .02-.01.04-.04.04h-.59v1.56c0 .02-.02.04-.04.04h-.33c-.03 0-.05-.02-.05-.04V13.4h-.59c-.02 0-.04-.02-.04-.04v-.32c0-.02.02-.04.04-.04h1.6zm2.32 0c.02 0 .04.02.04.04v1.92c0 .02-.02.04-.04.04h-.34c-.02 0-.04-.02-.04-.04V14l-.42.97c-.01.02-.03.03-.05.03h-.32c-.02 0-.04-.01-.05-.03l-.42-.97v.96c0 .02-.02.04-.05.04h-.33c-.03 0-.05-.02-.05-.04v-1.92c0-.02.02-.04.05-.04h.32c.03 0 .05 0 .06.03l.63 1.52.63-1.52c0-.02.03-.03.05-.03h.33z" fill="#FFF"/></g></svg>
