<svg width="128" height="128" viewBox="0 0 128 128" fill="none" xmlns="http://www.w3.org/2000/svg">
<rect width="128" height="128" fill="#57C73B"/>
<path fill-rule="evenodd" clip-rule="evenodd" d="M88.9851 30.8708C90.7347 32.1205 92.3843 33.5701 93.9839 35.1197C109.98 51.0657 109.98 76.9593 94.1339 92.9553C86.1357 100.903 75.5882 104.902 65.0906 104.902C60.2917 104.902 55.4928 104.052 50.9438 102.403L40.8461 112.45C39.7964 113.5 38.3967 114 37.047 114C35.6473 114 34.2976 113.5 33.2479 112.45C31.1484 110.351 31.1484 107.002 33.2479 104.902L40.9961 97.1542C39.2465 95.9045 37.5969 94.4549 35.9972 92.9053C20.0009 76.9593 20.0009 51.0157 35.9972 35.0697C47.5946 23.4726 64.5407 20.3234 79.0874 25.6221L89.185 15.5746C91.2346 13.4751 94.6338 13.4751 96.7333 15.5746C98.8328 17.6741 98.8328 21.0232 96.7333 23.1227L88.9851 30.8708ZM60.0182 93.5171C69.5681 95.2048 79.7212 92.4747 87.0595 85.2274C98.9718 73.5623 98.9718 54.5009 87.1098 42.7861C85.5014 41.1977 83.7422 39.8574 81.9327 38.7157L58.1082 62.1949C57.0527 63.2374 55.6454 63.7337 54.2883 63.7337C52.8809 63.7337 51.5238 63.2374 50.4683 62.1949C48.3573 60.1101 48.3573 56.7843 50.4683 54.6995L70.9755 34.4964C69.166 34.1489 67.3063 34 65.4969 34C57.7061 34 49.8652 36.9287 43.9342 42.7861C32.0219 54.5009 32.0219 73.5126 43.9342 85.2274C45.5426 86.8159 47.3018 88.1561 49.1112 89.2978L72.9357 65.8186C74.9965 63.7337 78.4144 63.7337 80.5254 65.8186C82.6364 67.9034 82.6364 71.2292 80.5254 73.3141L60.0182 93.5171Z" fill="white"/>
</svg>
