<svg width="285" height="285" viewBox="0 0 285 285" fill="none" xmlns="http://www.w3.org/2000/svg">
<path d="M168.691 177.292C168.691 177.292 183.952 204.658 169.331 221.815C158.951 233.997 122.169 241.627 122.169 241.627C122.169 241.627 130.885 262.448 117.677 265.961C104.47 269.474 94.5882 236.819 97.595 228.908C100.602 220.996 111.619 221.117 121.835 219.514C126.991 218.701 135.473 215.556 143.232 213.575C159.781 209.345 147.371 188.968 147.371 188.968L168.704 177.311L168.691 177.292Z" fill="white" stroke="#191F29" stroke-width="8.5" stroke-linecap="round" stroke-linejoin="round"/>
<path d="M224.883 146.874C215.458 147.178 199.927 141.68 193.34 138.894L181.559 160.176C185.612 161.316 198.282 168.156 220.324 167.396C242.366 166.636 256.427 149.155 248.446 143.074C240.466 136.994 236.664 146.494 224.883 146.874Z" fill="white" stroke="#191F29" stroke-width="8.5" stroke-linecap="round" stroke-linejoin="round"/>
<path d="M149.612 190.013L151.667 198.367C151.667 198.367 168.204 198.24 174.405 190.561L169.159 177.095L149.61 190.003L149.612 190.013Z" fill="#191F29"/>
<path d="M117.956 242.185L128.141 240.435" stroke="#191F29" stroke-width="8.5" stroke-linecap="round" stroke-linejoin="round"/>
<path d="M140.238 187.81C140.238 187.81 154.867 216.906 160.038 253.615C160.038 253.615 166.875 252.384 175.121 253.477C184.559 254.735 200.421 266.004 164.58 274.136C144.426 278.7 138.626 275.97 137.405 269.444C136.185 262.918 127.955 209.174 118.475 193.859L140.228 187.811L140.238 187.81Z" fill="white" stroke="#191F29" stroke-width="8.5" stroke-linecap="round" stroke-linejoin="round"/>
<path d="M120.777 196.246L125.639 210.742C125.639 210.742 137.261 210.822 146.651 204.813L141.246 191.388L120.777 196.246Z" fill="#191F29"/>
<path d="M153.523 254.934C158.182 254.013 162.786 253.512 167.757 253.184" stroke="#191F29" stroke-width="8.5" stroke-linecap="round" stroke-linejoin="round"/>
<path d="M213.219 118.28C210.919 104.95 201.819 93.9501 188.569 86.4501C196.759 75.5401 200.599 62.9601 198.429 50.3701C193.239 20.3101 155.759 1.67008 114.729 8.75008C73.6887 15.8401 44.6287 45.9601 49.8187 76.0301C51.7787 87.3601 58.3187 97.0701 67.9087 104.39C55.7987 116.61 49.6087 131.4 52.1387 146.09C53.4587 153.71 56.9987 160.58 62.2687 166.46L62.1087 195.4C62.0987 197.84 64.5887 199.52 66.8287 198.56C72.1787 196.27 81.0987 191.56 88.5987 183.28C103.899 188.74 122.619 190.39 142.139 187.02C186.619 179.34 218.439 148.57 213.209 118.29L213.219 118.28Z" fill="url(#paint0_linear_2199_10271)" stroke="#191F29" stroke-width="8.5" stroke-linecap="round" stroke-linejoin="round"/>
<path d="M174.093 89.8694C172.72 76.1204 161.435 65.9901 148.888 67.2429C136.341 68.4957 127.282 80.6571 128.655 94.4062C130.028 108.155 141.312 118.285 153.859 117.033C166.407 115.78 175.465 103.618 174.093 89.8694Z" fill="white" stroke="#191F29" stroke-width="8.5" stroke-linecap="round" stroke-linejoin="round"/>
<path d="M125.936 98.7457C124.564 84.9966 113.279 74.8664 100.732 76.1191C88.1847 77.3719 79.126 89.5333 80.4987 103.282C81.8715 117.031 93.1559 127.162 105.703 125.909C118.25 124.656 127.309 112.495 125.936 98.7457Z" fill="white" stroke="#191F29" stroke-width="8.5" stroke-linecap="round" stroke-linejoin="round"/>
<path d="M112.827 98.1357L100.153 98.2421C99.9846 91.0721 104.931 84.9739 111.446 84.3306C118.361 83.6421 124.672 89.307 125.43 96.8822C126.187 104.457 121.116 111.261 114.202 111.95C109.183 112.453 104.302 109.62 101.806 104.778L112.827 98.1357Z" fill="#191F29"/>
<path d="M161.593 89.1982L148.919 89.3046C148.75 82.1346 153.697 76.0364 160.211 75.3931C167.126 74.7046 173.438 80.3695 174.195 87.9447C174.953 95.5198 169.882 102.324 162.967 103.012C157.949 103.515 153.068 100.682 150.572 95.8406L161.593 89.1982Z" fill="#191F29"/>
<path d="M111.589 139.55C122.379 139.82 143.459 138.54 157.589 136C160.969 135.39 163.799 138.13 162.919 140.85C160.539 148.14 154.269 159.81 138.259 161.48C121.959 163.18 112.139 152.15 107.649 145.21C106.039 142.73 108.149 139.47 111.589 139.56V139.55Z" fill="#191F29"/>
<path d="M134.799 157.2C136.069 157.28 137.359 157.28 138.579 156.94C138.999 156.82 139.419 156.66 139.749 156.38C140.579 155.69 140.679 154.39 140.229 153.42C139.779 152.45 138.879 151.74 137.949 151.21C134.899 149.48 131.099 149.21 127.759 150.29C126.989 150.54 126.229 150.86 125.639 151.41C120.839 155.81 132.999 157.09 134.799 157.2Z" fill="url(#paint1_linear_2199_10271)"/>
<path d="M33.9049 148.294C32.8631 132.685 47.3149 122.581 56.02 122.799C64.7251 123.016 68.7667 131.124 60.4829 143.637C73.4496 149.075 87.64 157.859 79.4334 164.424C71.2267 170.99 34.9468 163.904 33.9049 148.294Z" fill="white" stroke="#191F29" stroke-width="8.5" stroke-linecap="round" stroke-linejoin="round"/>
<path d="M54.9785 141.01L66.9458 146.733" stroke="#191F29" stroke-width="8.5" stroke-linecap="round" stroke-linejoin="round"/>
<defs>
<linearGradient id="paint0_linear_2199_10271" x1="131.495" y1="7.24878" x2="131.495" y2="198.834" gradientUnits="userSpaceOnUse">
<stop stop-color="#BDFFD8"/>
<stop offset="1" stop-color="#F7F5AF"/>
</linearGradient>
<linearGradient id="paint1_linear_2199_10271" x1="132.51" y1="149.649" x2="132.51" y2="157.244" gradientUnits="userSpaceOnUse">
<stop stop-color="#BDFFD8"/>
<stop offset="1" stop-color="#F7F5AF"/>
</linearGradient>
</defs>
</svg>
